<?xml version="1.0" encoding="utf-8"?>
<!-- Generator: Adobe Illustrator 26.0.3, SVG Export Plug-In . SVG Version: 6.00 Build 0)  -->
<svg version="1.1" id="tcyc" xmlns="http://www.w3.org/2000/svg" xmlns:xlink="http://www.w3.org/1999/xlink" x="0px" y="0px"
	 viewBox="0 0 650.2 637.6" style="enable-background:new 0 0 650.2 637.6;" xml:space="preserve">
<style type="text/css">
	.st0{fill:#9E8E67;stroke:#000000;stroke-miterlimit:10;}
	.st1{fill:#FFFFFF;}
	.st2{font-family:'ArialMT';}
	.st3{font-size:25px;}
	.st4{enable-background:new    ;}
	.st5{font-size:20px;}
	.st6{font-size:18px;}
	.st7{font-size:23.52px;}
	.st8{fill:#202020;}
	.st9{fill:#9E8E67;stroke:#000000;stroke-width:3;stroke-miterlimit:10;}
</style>
<g id="circles">
	<circle class="st0" cx="325.1" cy="75.5" r="75"/>
	<text transform="matrix(1 0 0 1 285.7399 81.4866)" class="st1 st2 st3">design</text>
	<circle class="st0" cx="523.5" cy="172.9" r="75"/>
	<text transform="matrix(1 0 0 1 482.969 150.7196)" class="st4"><tspan x="0" y="0" class="st1 st2 st5">construct</tspan><tspan x="-3.4" y="21.6" class="st1 st2 st6">AUTHORS </tspan><tspan x="-25.9" y="43.2" class="st1 st2 st6">ENVIRONMENT</tspan></text>
	<circle class="st0" cx="574.7" cy="388.4" r="75"/>
	<circle class="st0" cx="436.8" cy="562.1" r="75"/>
	<text transform="matrix(1 0 0 1 397.7598 566.764)" class="st1 st2 st3">marking</text>
	<circle class="st0" cx="214.3" cy="562.1" r="75"/>
	<text transform="matrix(1 0 0 1 173.7859 543.1729)" class="st4"><tspan x="0" y="0" class="st1 st2 st7">analyze</tspan><tspan x="-17" y="28.2" class="st1 st2 st7">ANALYSIS</tspan><tspan x="8.5" y="56.4" class="st1 st2 st7">TOOL</tspan></text>
	<circle class="st0" cx="75.5" cy="388.4" r="75"/>
	<text transform="matrix(1 0 0 1 42.0218 394.6198)" class="st1 st2 st3">report</text>
	<circle class="st0" cx="131.1" cy="172.9" r="75"/>
	<text transform="matrix(1 0 0 1 82.0695 178.0908)" class="st1 st2 st3">evaluate</text>
	<circle class="st0" cx="327.3" cy="313.4" r="75"/>
	<text transform="matrix(1 0 0 1 274.503 306.8898)" class="st4"><tspan x="0" y="0" class="st1 st2 st5">ITEM BANK</tspan><tspan x="-4.5" y="24" class="st1 st2 st5">management</tspan></text>
</g>
<g id="arrows">
	<path class="st8" d="M403.3,108.1c10.3,3.8,20.4,8.5,30,13.8l3.1,1.8l-3.3,5.6c7.1-2.2,14.3-4,21.6-5.3c-1.5-7.6-3.3-15-5.5-22.4
		l-3.3,5.6l-3.4-1.9c-10.5-5.8-21.4-10.9-32.7-15.1L403.3,108.1z"/>
	<path class="st8" d="M533.5,257.7c2.9,10.6,5.1,21.5,6.4,32.5l0.4,3.5l-6.5,0.6c5.9,4.5,11.6,9.3,17,14.4
		c5.3-5.6,10.2-11.5,14.9-17.6l-6.5,0.6l-0.4-3.9c-1.4-11.9-3.7-23.7-6.9-35.3L533.5,257.7z"/>
	<path class="st8" d="M501.7,439.5c-6.4,9-13.4,17.5-21.1,25.5l-2.5,2.5l-4.6-4.6c0.3,7.4,0.1,14.8-0.4,22.2
		c7.7,0.5,15.4,0.7,23,0.4l-4.6-4.6l2.7-2.8c8.4-8.6,16-17.9,23-27.7L501.7,439.5z"/>
	<path class="st8" d="M349.3,529c-11,1.2-22,1.5-33,1l-3.6-0.2l0.4-6.5c-5.4,5.1-11,9.9-16.9,14.5c4.7,6.1,9.7,12,14.9,17.6l0.4-6.5
		l3.9,0.2c12,0.5,24,0.2,36-1.1L349.3,529z"/>
	<path class="st8" d="M182.3,475.7c-8.2-7.4-15.8-15.4-22.8-23.9l-2.2-2.8l5.1-4c-7.4-0.6-14.8-1.6-22.1-3
		c-1.4,7.6-2.5,15.2-3.1,22.8l5.1-4l2.4,3c7.6,9.3,15.9,18,24.8,26L182.3,475.7z"/>
	<path class="st8" d="M111.5,306.9c0.5-11,1.8-22,3.9-32.8l0.7-3.5l6.4,1.4c-4.3-6.1-8.2-12.4-11.8-18.9
		c-6.8,3.7-13.3,7.8-19.6,12.2l6.4,1.4l-0.8,3.8c-2.3,11.8-3.7,23.7-4.2,35.7L111.5,306.9z"/>
	<path class="st8" d="M207.6,137.8c9.2-6.1,18.9-11.5,28.9-16.1l3.2-1.5l2.6,6c2.4-7,5.2-13.9,8.4-20.6c-7-3.3-14.1-6.2-21.4-8.8
		l2.6,6l-3.5,1.6c-10.9,5-21.4,10.9-31.5,17.5L207.6,137.8z"/>
</g>
<g id="MiddleArrows">
	<path class="st0" d="M328.4,309.7"/>
	<path d="M455.9,222.6l-58.1,42.7"/>
	<path class="st9" d="M443.2,231.9l-32.7,24"/>
	<polygon points="452,248 430.4,218.6 455.9,222.5 	"/>
	<polygon points="423.2,269.2 401.6,239.8 397.8,265.3 	"/>
	<path d="M285.7,402.2l-28.5,66.3"/>
	<path class="st9" d="M279.5,416.7l-16,37.3"/>
	<polygon points="295.3,426.2 261.8,411.8 285.7,402.2 	"/>
	<polygon points="281.2,459 247.7,444.6 257.2,468.5 	"/>
	<path d="M484.8,362.2l-67.8-24.9"/>
	<path class="st9" d="M470.1,356.8l-38.1-14"/>
	<polygon points="461.5,373 474,338.8 484.8,362.2 	"/>
	<polygon points="427.9,360.7 440.5,326.5 417.1,337.3 	"/>
</g>
<text transform="matrix(1 0 0 1 520.1823 373.2396)" class="st4"><tspan x="0" y="0" class="st1 st2 st5">administrate</tspan><tspan x="6.9" y="21.6" class="st1 st2 st6">PLAYBACK</tspan><tspan x="-12" y="43.2" class="st1 st2 st6">ENVIRONMENT</tspan></text>
</svg>
